<svg xmlns="http://www.w3.org/2000/svg" width="256" height="256"><path fill="#1976D2" fill-opacity=".016" fill-rule="evenodd" d="M0 128.004v128.004l128.25-.254 128.25-.254.254-127.75L257.008 0H0zm.485.496c0 70.4.119 99.053.265 63.672s.146-92.98 0-128S.485 58.1.485 128.5"/><path fill="#1976D2" fill-opacity=".334" fill-rule="evenodd" d="M75.1 24.495c-10.575 2.38-17.871 8.771-20.684 18.119-1.925 6.395-2.13 164.272-.216 166.186 2.405 2.405 5.229 1.055 12.689-6.064 6.881-6.568 14.6-12.24 23.048-16.939L93 184.093v-25.892c0-23.813.147-26.024 1.829-27.546 1.556-1.408 4.456-1.655 19.443-1.655 17.069 0 17.663.069 19.171 2.223 1.268 1.809 1.557 5.528 1.557 20 0 9.777.202 17.777.45 17.777.247 0 4.632-1.814 9.744-4.031 27.079-11.745 42.994-27.752 43.217-43.469.147-10.39-5.28-16.588-15.325-17.5-6.742-.612-6.847-.869-6.986-17.068-.109-12.564 1.262-19.206 5.156-24.983 7.768-11.527 24.016-13.185 34.018-3.471l3.5 3.399 3.863-2.805c6.037-4.383 10.699-5.539 16.817-4.17 6.922 1.549 11.768 5.772 15.634 13.625 9.539 19.377 1.094 43.925-19.897 57.83-7.057 4.675-10.344 6.241-21.691 10.334-9.094 3.281-12.619 5.446-20.472 12.575-14.337 13.016-26.509 19.259-58.672 30.093-31.694 10.675-44.648 17.74-57.225 31.208C61.29 216.822 54 227.978 54 230.663c0 .486 4.163-3.196 9.25-8.182 15.264-14.959 28.698-22.642 54.25-31.024 8.8-2.886 16.338-5.043 16.75-4.793s.75 9.603.75 20.784c0 26.03-.535 25.087 14.165 24.97 8.079-.065 11.328-.524 14.886-2.106 6.574-2.923 11.361-7.544 14.04-13.555 2.163-4.851 2.385-6.974 2.877-27.474.429-17.91.823-22.505 2.032-23.7.825-.815 5.55-2.382 10.5-3.481 29.153-6.474 44.018-16.817 54.483-37.909 6.692-13.488 8.998-35.459 5.404-51.496-4.286-19.125-15.853-34.926-31.218-42.645-10.518-5.283-17.723-6.317-47.457-6.804-15.283-.251-29.396-.155-31.362.214s-4.648 1.745-5.962 3.059L135 28.909V95h-19c-17.667 0-19.14-.14-21-2-1.917-1.917-2.001-3.344-2.015-34.25-.009-17.738-.411-32.874-.894-33.637-1.264-1.996-9.532-2.296-16.991-.618m109.4 42.17c-4.409 2.33-6.487 4.393-8.606 8.545-2.401 4.704-2.424 11.334-.054 15.752 2.851 5.316 3.841 4.776 3.363-1.834-.756-10.456 3.041-16.482 11.223-17.81 4.169-.676 10.85 2.273 15.028 6.634l2.834 2.958 4.053-3.47c7.583-6.491 15.801-6.625 21.086-.344 4.632 5.504 4.613 13.944-.051 23.149-3.263 6.439-14.934 17.918-24.152 23.755-3.909 2.475-7.133 4.813-7.165 5.195s2.304-.275 5.191-1.46c20.926-8.586 34.273-23.248 35.441-38.931.409-5.491.104-7.014-2.361-11.803-6.015-11.688-17.54-14.178-27.818-6.011l-3.767 2.994-3.55-3.117c-6.645-5.835-14.562-7.442-20.695-4.202m-40.794 18.962c-.388.388-.713 4.344-.721 8.79s-.361 8.626-.782 9.289c-.473.744-4.012 1.319-9.235 1.5l-8.468.294-.289 7.595c-.206 5.412.095 7.914 1.047 8.704.735.61 4.915 1.243 9.289 1.405l7.953.296.292 8.967c.183 5.624.742 9.253 1.5 9.735.664.422 3.683.767 6.708.767s6.044-.345 6.708-.767c.758-.482 1.317-4.111 1.5-9.735l.292-8.967 7.953-.296c4.374-.162 8.536-.78 9.25-1.372.828-.688 1.297-3.516 1.297-7.832s-.469-7.144-1.297-7.832c-.714-.592-4.876-1.21-9.25-1.372l-7.953-.296-.5-9.5-.5-9.5-7.044-.29c-3.874-.159-7.361.029-7.75.417M.559 143.453c-1.528 10.194 3.106 28.72 9.549 38.167 5.76 8.447 19.303 17.96 29.805 20.935 2.394.678 2.387.639-.898-5.186-1.821-3.228-6.418-10.594-10.215-16.369l-6.906-10.5 6.613 6.928c3.636 3.81 8.808 10.335 11.492 14.5 8.374 12.994 7.905 12.816 7.956 3.032.095-18.089-6.66-32.14-19.813-41.216C24.33 151.114 2.44 139 1.499 139c-.15 0-.572 2.004-.94 4.453m17.756 64.491C13.71 210.035 8 213.981 8 215.072 8 216.493 22.277 221 26.778 221c4.228 0 21.169-4.8 21.176-6 .002-.275-1.762-1.749-3.919-3.275-8.253-5.837-18.027-7.274-25.72-3.781"/><path fill="#1976D2" fill-opacity=".276" fill-rule="evenodd" d="M72.821 25.375c-7.871 2.153-15.801 9.581-17.848 16.72-.533 1.859-1.241 38.472-1.621 83.87-.634 75.623-.569 80.676 1.058 82.302.953.953 2.335 1.733 3.07 1.733s4.546-3.127 8.468-6.95c6.822-6.648 17.45-14.456 23.302-17.119l2.75-1.252v-24.19c0-24.961.604-29.671 4.039-31.51 1.006-.538 9.199-.979 18.207-.979 22.169 0 20.754-1.51 20.754 22.147v18.07l2.75-.678c4.724-1.164 20.711-9.099 27.17-13.484 14.164-9.619 23.004-22.122 22.924-32.424-.046-5.905-1.775-9.768-6.171-13.782-3.612-3.299-5.193-3.689-3.708-.915 1.425 2.663 1.306 13.395-.165 14.866-.741.741-4.378 1.2-9.5 1.2H160v8.066c0 11.246-.509 11.934-8.835 11.934-3.928 0-7.268-.503-7.965-1.2-.751-.751-1.2-4.48-1.2-9.961v-8.761l-8.75-.289-8.75-.289-.296-7.98c-.367-9.887.264-10.52 10.487-10.52H142v-8.965c0-10.558.428-11.035 9.899-11.035 7.497 0 8.101.89 8.101 11.934V104h3.607c2.957 0 3.492-.301 2.967-1.668-.352-.917-.914-6.462-1.25-12.321-.658-11.5.42-18.474 3.935-25.464 2.41-4.79 10.323-12.923 11.729-12.055.556.344 1.012.101 1.012-.54 0-.65.697-.899 1.574-.562.866.332 2.149.03 2.85-.671 1.871-1.871-.172-3.348-4.875-3.525-2.146-.08-4.362-.607-4.925-1.17S175.985 45 176.455 45s.05-.889-.934-1.976c-.983-1.087-2.178-1.736-2.655-1.441s-.866-.757-.866-2.337c0-1.869-1.021-3.85-2.925-5.674-1.608-1.541-2.685-3.425-2.393-4.187.335-.871-.157-1.391-1.325-1.4-1.534-.013-1.601-.177-.386-.946 2.614-1.653.535-2.083-11.896-2.46-11.58-.351-12.344-.251-14.891 1.938l-2.684 2.308-.323 33.087L134.855 95h-19.356c-16.263 0-19.607-.251-20.928-1.571-.864-.865-1.668-1.652-1.787-1.75s-.457-15.254-.75-33.679L91.5 24.5l-7-.202c-3.85-.112-9.106.373-11.679 1.077M176.5 169.103c-8.333 5.003-19.423 9.892-30.75 13.557L135 186.139v20.476c0 20.407.008 20.484 2.455 22.93 2.242 2.243 3.231 2.455 11.462 2.455 11.087 0 18.072-2.325 23.264-7.744 6.993-7.299 7.229-8.306 7.802-33.256.284-12.375.881-23.062 1.326-23.75 1.073-1.658.978-1.622-4.809 1.853"/><path fill="#1976D2" fill-opacity=".14" fill-rule="evenodd" d="M77.197 25.112c-.933.336-2.333.372-3.111.08-.976-.367-1.16-.121-.594.796.616.995.282 1.186-1.334.763-3.672-.96-12.201 5.77-15.91 12.553-1.624 2.97-1.748 9.068-1.748 86.087 0 76.452.13 82.973 1.676 83.948 1.377.869 3.02-.221 9.232-6.121 6.565-6.236 13.091-11.052 23.842-17.591l2.75-1.673v-51.045l2.455-2.454c2.413-2.414 2.737-2.455 19.465-2.455h17.011l3.163 3.092 3.163 3.092 2.158-2.3c1.261-1.344 2.142-3.562 2.121-5.342l-.036-3.042-8.236-.29c-9.935-.35-10.272-.74-9.974-11.521l.21-7.593-2.215 1.452c-2.627 1.722-7.599 1.89-10.471.352-1.495-.799-1.87-.799-1.376 0 .413.668-.153 1.1-1.438 1.1-1.165 0-1.862-.414-1.55-.919s-.089-1.577-.893-2.381-1.183-1.74-.843-2.081-.375-.619-1.591-.619c-1.541 0-2.122-.523-1.917-1.728.162-.95-.268-1.793-.956-1.875a147 147 0 0 0-3.5-.342c-2.158-.188-2.168-.231-.25-1.055 1.772-.762 1.687-.867-.75-.93-1.974-.05-2.75-.587-2.75-1.903 0-1.009-.263-2.097-.584-2.418s-.628-7.821-.68-16.667C91.683 65.237 91.383 58 91.07 58s-.57-1.8-.57-4 .225-4 .5-4c.37 0 .394-17.101.034-24.161-.046-.888-11.693-1.5-13.837-.727m11.616 2.571c.721.289 1.584.253 1.916-.079s-.258-.568-1.312-.525c-1.165.048-1.402.285-.604.604M141 133.059c0 .582-.45.781-1 .441-.577-.357-.994.57-.985 2.191.011 1.966.275 2.4.879 1.446.729-1.151.948-1.151 1.406 0 .298.75.578-.1.621-1.887s-.146-3.25-.421-3.25-.5.477-.5 1.059m-6 27.441c0 .825.45 1.5 1 1.5s1-.675 1-1.5-.45-1.5-1-1.5-1 .675-1 1.5m.5 3.5c.34.55.816 1 1.059 1s.441-.45.441-1-.477-1-1.059-1-.781.45-.441 1m14.75 17.78c-4.548 1.748-5.55 3.22-2.191 3.22 1.132 0 1.81-.403 1.506-.895-.757-1.225 2.055-2.188 4.099-1.404 1.059.407 1.42.244.994-.446-.369-.596-.105-1.312.586-1.591s.806-.508.256-.511-2.912.729-5.25 1.627m-9 2.882c-1.91.771-1.49 1.894.772 2.065 1.112.083 1.784-.232 1.493-.702s.038-1.082.729-1.361c.848-.341.768-.506-.244-.506-.825 0-2.062.227-2.75.504m-5.643 2.92c-1.874 4.884.435 7.814 3.345 4.244 1.043-1.279 1.481-2.476.972-2.659-.508-.184-.924-.971-.924-1.75 0-1.928-2.639-1.8-3.393.165m-.136 19.847c-.388 3.622-.444 9.17-.124 12.328.319 3.159.597 5.942.617 6.184.02.243.671-.427 1.447-1.489.777-1.061 1.261-2.174 1.076-2.473s-.638-5.028-1.008-10.511c-.371-5.482-.815-10.116-.988-10.297-.173-.18-.632 2.635-1.02 6.258M138 228c0 .55.477 1 1.059 1s.781-.45.441-1-.816-1-1.059-1-.441.45-.441 1m15 1.094c0 .498.563.913 1.25.921q1.25.016-.25.985c-1.232.796-1.128.972.583.985 2.569.019 2.771-2.659.25-3.318-1.008-.264-1.833-.072-1.833.427m-5.187.589c.721.289 1.584.253 1.916-.079s-.258-.568-1.312-.525c-1.165.048-1.402.285-.604.604"/></svg>