<svg xmlns="http://www.w3.org/2000/svg" width="256" height="256"><path fill="#1976D2" fill-opacity=".016" fill-rule="evenodd" d="M0 128.004v128.004l128.25-.254 128.25-.254.254-127.75L257.008 0H0zm.485.496c0 70.4.119 99.053.265 63.672s.146-92.98 0-128S.485 58.1.485 128.5"/><path fill="#1976D2" fill-opacity=".051" fill-rule="evenodd" d="M192 6.46c0 1.438 4.819 6.54 6.177 6.54 1.435 0 6.881 12.705 7.716 18 .476 3.025.551 7.868.164 10.762-.618 4.635-.405 5.677 1.783 8.754 1.367 1.921 2.217 3.761 1.889 4.089s-3.328-.349-6.667-1.504c-7.046-2.439-13.998-2.702-17.91-.68-3.137 1.623-7.525 9.103-9.766 16.652l-1.528 5.143-2.485-2.335c-1.737-1.632-3.673-2.336-6.429-2.336-3.129 0-3.944-.371-3.944-1.797 0-1.937 3.629-3.748 7.509-3.748 4.096 0 7.621-3.973 8.217-9.262.484-4.298.262-4.947-2.62-7.639-3.688-3.445-10.156-5.101-19.905-5.095-10.699.006-14.523 3.204-16.734 13.996l-1.127 5.5-.652-6.222c-1.445-13.799-9.078-21.484-16.913-17.028-6.562 3.732-7.191 5.809-7.769 25.644-.437 15.029-.74 17.542-2.228 18.478-3.669 2.307-4.299-.459-3.953-17.356.342-16.645-.05-18.704-4.222-22.191-3.778-3.159-10.601-1.8-14.919 2.972-2.154 2.38-4.655 11.19-4.672 16.453-.014 4.459-1.312 4.855-2.95.9-1.794-4.331-9.035-10.881-13.938-12.609C61.718 49.694 57.612 49 55 49c-7.325 0-19.749 4.84-24.424 9.515-3.984 3.984-3.584 11.466 1.424 26.607 2.2 6.652 4 12.54 4 13.085 0 3.15 7.93 18.593 10.644 20.727 1.821 1.433 2.361 2.843 2.38 6.21.013 2.396.435 6.156.938 8.356.814 3.561.762 3.78-.473 2-3.18-4.585-6.11-7.754-7.989-8.641-1.1-.52-3.125-1.594-4.5-2.387-1.404-.81-5.119-1.449-8.473-1.457-4.897-.012-7.291.645-13.291 3.65-4.025 2.016-8.704 5.242-10.396 7.17-5.006 5.702-3.958 10.037 8.387 34.665 9.381 18.717 14.792 23.714 23.174 21.4 8.371-2.312 11.197-10.792 6.099-18.305-1.375-2.026-2.5-4.017-2.5-4.424s1.392-1.562 3.093-2.567c3.493-2.063 8.907-9.965 8.907-13 0-4.181 1.751.186 3.481 8.686C57.737 171.364 60.584 175 67 175c6.117 0 10.677-2.492 12.024-6.572.615-1.864.835-3.848.488-4.408-1.158-1.875.568-1.05 4.621 2.207 5.246 4.216 10.099 4.359 15.225.449 2.084-1.59 3.642-3.647 3.642-4.811 0-1.885.273-1.82 3.75.895 2.063 1.61 5.28 3.448 7.149 4.084 4.602 1.565 12.444 1.458 16.472-.226 3.812-1.592 9.292-6.976 10.809-10.618l1.041-2.5 1.304 3.655c3.249 9.102 8.995 14.517 18.4 17.339l3.426 1.028-.251 6.91c-.315 8.69-2.825 14.227-9.545 21.056-7.737 7.862-16.969 11.902-36.367 15.916-5.113 1.058-7.867 1.069-14.5.061-9.401-1.429-12.018-2.331-17.731-6.112-3.857-2.553-4.398-2.65-8.552-1.539-8.568 2.292-14.176 1.58-22.924-2.911-6.182-3.174-9.002-4.067-12.512-3.961-10.13.306-23.603-4.638-33.823-12.411-3.44-2.616-6.507-4.504-6.815-4.195s1.207 3.055 3.369 6.102c4.858 6.849 15.825 15.419 23.8 18.6 5.008 1.998 7.928 4.333 17.667 14.134 7.087 7.131 13.368 12.532 16 13.757 11.977 5.578 22.562 7.407 34.372 5.941 7.048-.875 13.172-.365 21.461 1.787 1.375.357 7.546.843 13.714 1.081 9.698.374 11.997.141 17-1.719 7.731-2.876 13.803-6.471 19.478-11.534 3.642-3.25 6.216-4.556 11.5-5.838 3.744-.909 7.625-1.651 8.624-1.65 2.987.005 16.038-6.457 22.125-10.953 10.134-7.487 17.641-19.835 21.608-35.544 1.39-5.507 3.213-9.593 5.2-11.655 4.047-4.203 11.971-15.978 13.354-19.845.885-2.475 2.123-5.581 2.753-6.903.683-1.435 1.105-7.28 1.047-14.5-.087-10.888-.367-12.696-2.802-18.09-3.401-7.532-4.165-12.98-2.69-19.161 3.057-12.809.864-26.917-6.057-38.967-2.861-4.98-10.69-13.566-16.92-18.555-2.722-2.179-5.866-6.096-7.785-9.697C216.034 19.284 209.88 13 207.272 13c-.7 0-1.272-.367-1.272-.816C206 11.075 198.622 7 196.614 7 195.726 7 195 6.55 195 6s-.675-1-1.5-1-1.5.657-1.5 1.46M53 70.886c0 3.234 2.344 8.437 3.348 7.432 1.118-1.118.713-7.857-.548-9.118-1.928-1.928-2.8-1.403-2.8 1.686m195.079.697c.048 1.165.285 1.402.604.605.289-.722.253-1.585-.079-1.917s-.568.258-.525 1.312m-49.022 6.31c-.88 1.645-.59 1.959 2.215 2.396 1.775.276 4.133.799 5.238 1.161 1.601.524 2.246.035 3.164-2.396L210.826 76h-5.378c-4.253 0-5.59.396-6.391 1.893M79.548 84.848c-.854 2.693-7.75 9.688-11.421 11.586-3.574 1.848-3.678 2.311-1.631 7.21 1.395 3.339 1.722 3.538 4.861 2.949 10.038-1.883 21.131 5.23 23.683 15.188 1.273 4.963 2.96 6.164 2.96 2.105 0-2.373 3.568-10.501 4.997-11.384 1.874-1.158 1.012-2.341-2.22-3.051-9.187-2.018-16.412-10.566-18.35-21.712-.754-4.336-2.017-5.605-2.879-2.891m168.531 4.735c.048 1.165.285 1.402.604.605.289-.722.253-1.585-.079-1.917s-.568.258-.525 1.312m-114.924.476c-.085.857-1.672 4.078-3.526 7.156l-3.37 5.598 3.944 1.779c7.715 3.478 15.651 15.385 15.847 23.773.036 1.54.627.944 2.12-2.135 2.522-5.2 10.156-12.988 14.58-14.872 2.934-1.25 3.251-1.797 3.262-5.621.006-2.331.665-6.691 1.463-9.69.798-3 1.355-5.497 1.238-5.55s-2.752.078-5.855.29c-5.371.367-5.672.532-6.25 3.424-.335 1.672-.608 5.167-.608 7.768 0 8.511-7.062 12.626-14.802 8.623-5.327-2.754-6.589-5.174-7.26-13.921-.346-4.499-.698-7.48-.783-6.622m73.026 8.216c-3.019 3.013-3.646 3.212-9.535 3.024l-6.304-.2-1.771 7.512c-1.63 6.915-1.642 7.653-.158 9.293 2.305 2.547 6.587 13.926 6.587 17.504 0 2.893.155 2.781 3.445-2.478 3.506-5.606 8.296-8.93 12.867-8.93 2.176 0 2.243-.298 2.216-9.95-.019-6.593-.45-10.372-1.278-11.2-.687-.688-1.257-2.173-1.265-3.3-.032-4.26-1.44-4.633-4.804-1.275M246.158 101c0 1.375.227 1.938.504 1.25.278-.687.278-1.812 0-2.5-.277-.687-.504-.125-.504 1.25m7.037 20.5c.02 1.65.244 2.204.498 1.231s.237-2.323-.037-3-.481.119-.461 1.769M120 128.441c0 1.343-.45 2.719-1 3.059-1.434.886-1.168 10.569.365 13.334l1.295 2.334 1.67-2.549c2.927-4.467 1.889-18.619-1.365-18.619-.531 0-.965 1.098-.965 2.441m-49.472-.487c-.536.868-.176 3.486 1.149 8.349.637 2.337 2.914.619 3.543-2.674.873-4.566-2.703-8.892-4.692-5.675M95 134.099c0 .604-.742 2.662-1.649 4.573-1.587 3.345-1.568 3.555.5 5.624L96 146.444v-6.722c0-3.697-.225-6.722-.5-6.722s-.5.494-.5 1.099m73.019 2.102c-1.106 1.814-2.013 3.996-2.015 4.849s-.485 2.031-1.072 2.618c-1.357 1.357-.804 8.555.695 9.047 1.752.575 5.12-6.839 5.884-12.953.843-6.749-.631-8.253-3.492-3.561m85.176 2.299c.02 1.65.244 2.204.498 1.231s.237-2.323-.037-3-.481.119-.461 1.769m-227.654 4.75c.372 1.238 1.478 3.55 2.457 5.14l1.782 2.89.704-3.207c.523-2.38.253-3.706-1.045-5.14-2.474-2.734-4.759-2.548-3.898.317M166.232 186c0 1.925.206 2.713.457 1.75.252-.963.252-2.537 0-3.5-.251-.963-.457-.175-.457 1.75"/><path fill="#1976D2" fill-opacity=".378" fill-rule="evenodd" d="M116.571 41.368c-2.374 2.24-3.571 4.269-3.571 6.057 0 1.479-.515 4.736-1.145 7.238-.875 3.473-.852 6.519.095 12.888.95 6.383.969 9.163.084 11.847-1.499 4.542-4.719 5.71-7.222 2.618-2.094-2.586-2.221-5.82-.78-19.865.848-8.262.774-10.68-.416-13.528-4.246-10.162-16.913-7.589-20.43 4.149C82.533 54.952 82 62.615 82 69.817c0 23.66 5.098 34.711 17.632 38.22 2.431.681 4.649 1.609 4.93 2.063s-.608 2.597-1.975 4.763c-3.439 5.446-6.007 18.73-5.181 26.793.357 3.489.428 6.344.157 6.344-.272 0-2.025-1.345-3.898-2.989l-3.404-2.989 2.444-4.761c3.345-6.514 2.881-14.171-1.263-20.843-3.964-6.383-8.377-8.564-17.27-8.536l-6.937.022-1.617-4.235c-2.16-5.656-2.074-6.236 1.132-7.576 7.149-2.989 13.211-11.634 14.014-19.985.829-8.631-5.942-19.091-15.333-23.685-4.907-2.401-6.297-2.64-12.378-2.131-7.277.61-17.616 4.719-21.803 8.665-1.825 1.72-2.249 3.2-2.244 7.832.005 5.581 1.173 11.701 2.999 15.711.5 1.1 2.093 6.05 3.538 11 3.196 10.946 8.74 22.787 11.804 25.211 1.874 1.483 2.456 3.414 3.406 11.289 1.351 11.202 1.368 11.293 4.577 25.626 3.851 17.205 5.591 19.319 14.877 18.073 5.504-.738 8.248-3.633 8.248-8.704 0-2.197.163-3.995.363-3.995s2.176 1.551 4.39 3.446c5.197 4.449 8.535 5.159 13.438 2.861 2.79-1.308 4.118-2.704 4.811-5.057 1.114-3.785 2.487-4.084 5.138-1.12 4.718 5.274 17.649 7.59 24.181 4.332 3.552-1.772 8.939-7.582 10.266-11.073 1.137-2.989 2.958-3.115 2.958-.205 0 3.703 3.978 10.641 8.146 14.209 8.855 7.58 21.255 7.214 28.709-.846 2.473-2.675 5.311-3.656 3.193-1.105-.658.793-1.274 3.461-1.37 5.929-.197 5.105 2.248 9.269 6.736 11.469 4.988 2.445 7.381.859 11.135-7.378 1.87-4.104 3.974-7.459 4.676-7.456.701.004 2.581.687 4.177 1.519 3.382 1.765 5.478 1.288 9.603-2.183 2.377-2 2.995-3.319 2.995-6.392 0-4.182-2.905-7.95-6.13-7.95-2.627 0-3.143-1.654-1.362-4.372 1.455-2.22 2.082-2.386 7.292-1.924 5.062.449 5.939.242 7.835-1.849 1.174-1.295 2.426-3.316 2.781-4.491 1.229-4.063-6.02-10.271-16.416-14.059-8.576-3.124-13.05-.645-18.316 10.148-2.085 4.275-4.064 7.5-4.398 7.166s-.505-3.74-.38-7.57c.243-7.506-1.991-14.382-6.092-18.747-1.762-1.876-1.921-2.66-1.018-5.013.59-1.534 1.773-5.319 2.629-8.412l1.557-5.622 4.626.864c8.007 1.496 14.392-3.33 14.392-10.878 0-4.06-1.838-6.044-7-7.556-3.574-1.046-4.429-1.715-4.155-3.251.635-3.559 2.254-4.434 8.205-4.434 5.08 0 6.064-.329 7.877-2.635 1.282-1.629 2.073-4.104 2.073-6.486 0-3.35-.487-4.167-3.75-6.284-4.411-2.863-16.118-6.601-20.605-6.58-7.031.033-11.129 4.568-14.709 16.28-1.211 3.963-2.387 7.412-2.614 7.666-.226.253-1.45-.843-2.721-2.436-1.897-2.38-3.095-2.909-6.705-2.961-3.619-.053-4.441-.418-4.652-2.064-.41-3.212 1.169-4.614 5.862-5.204q8.055-1.015 9.359-7.963c1.385-7.383-4.399-11.352-17.645-12.108-10.325-.588-13.895.541-16.692 5.282C139.179 51.81 137 62.831 137 69.383c0 1.924-.516 3.818-1.146 4.207-.81.501-.945-.092-.459-2.027.959-3.823-1.222-22.382-3.097-26.34-3.654-7.717-9.986-9.269-15.727-3.855M52.539 73.149q2.409 9.132 4.487 5.843c1.341-2.121 1.197-8.369-.226-9.792-.66-.66-2.194-1.2-3.409-1.2-2.17 0-2.185.094-.852 5.149m81.476 10.101c.013 1.819.201 1.963.985.75 1.253-1.939 1.253-3 0-3-.55 0-.993 1.013-.985 2.25m-2.332 7.459c-.999 2.864-2.934 6.855-4.299 8.867s-2.348 3.77-2.183 3.907c.164.137 2.099 1.052 4.299 2.035 7.785 3.477 13.843 12.051 15.075 21.337.376 2.83.962 5.144 1.304 5.143.341-.002 1.921-2.492 3.511-5.534 3.164-6.056 11.396-14.152 14.896-14.649 1.952-.278 2.285-1.085 2.811-6.815.328-3.575 1.341-8.944 2.25-11.932S171 87.482 171 87.293s-1.328.342-2.95 1.181S163.052 90 160.55 90c-4.498 0-4.55.038-4.55 3.364 0 6.719-1.95 14.093-4.225 15.978-4.382 3.629-13.265.124-16.073-6.342-.597-1.375-1.337-5.875-1.644-10l-.558-7.5zm-115.86 36.587c-7.58 3.951-10.499 6.288-12.426 9.952-1.29 2.451-1.242 3.369.444 8.5 2.297 6.993 13.126 28.818 17.814 35.903 5.902 8.921 12.839 10.366 19.919 4.15 4.202-3.69 4.255-5.615.368-13.281-3.313-6.535-3.486-5.751 2.17-9.851.887-.643 2.799-2.919 4.25-5.059 4.796-7.071 3.111-21.431-3.15-26.851-8.905-7.707-18.971-8.894-29.389-3.463m103.236-.407c-1.591 2.974-2.159 12.025-1.02 16.257 1.283 4.763 4.497 5.387 5.686 1.104.942-3.394.915-12.796-.048-16.5-.825-3.174-3.148-3.607-4.618-.861m-49.041.59c-1.542 1.857.497 11.521 2.43 11.521.686 0 2.053-1.785 3.037-3.967 1.674-3.712 1.682-4.129.129-6.5-1.877-2.865-3.794-3.226-5.596-1.054m97.326 7.709c-4.112 7.691-5.412 14.588-3.357 17.812 2.67 4.188 8.105-5.176 8.351-14.388.133-4.956-.143-6.107-1.53-6.391-1.09-.222-2.323.834-3.464 2.967m-142.805 7.935c1.19 3.748 4.628 8.892 5.559 8.316 1.021-.631 1.215-6.459.295-8.857-.364-.95-1.79-1.582-3.567-1.582-2.563 0-2.87.285-2.287 2.123"/><path fill="#1976D2" fill-opacity=".122" fill-rule="evenodd" d="M119.206 40.064c-2.253.888-5.037 5.998-5.959 10.936-.257 1.375-.402 8.672-.322 16.215.133 12.568-.025 13.885-1.89 15.75-1.119 1.119-2.624 2.035-3.344 2.035-4.002 0-7.352-8.209-5.7-13.968.527-1.838 1.079-7.519 1.227-12.623.235-8.106.004-9.636-1.824-12.095-1.516-2.038-3.114-2.9-5.797-3.128-3.168-.268-4.262.244-7.548 3.53-3.466 3.466-3.915 4.519-4.582 10.747-.93 8.683-.031 32.137 1.294 33.795.547.683 1.327 2.367 1.733 3.742 1.852 6.271 10.546 13 16.795 13 1.271 0 2.8.489 3.399 1.088.783.783 2.279.224 5.35-2 3.006-2.178 5.397-3.088 8.112-3.088 2.697 0 3.85-.434 3.85-1.45 0-.798.588-1.81 1.308-2.25 1.911-1.169 5.233-8.843 7.168-16.557 1.308-5.216 1.574-9.485 1.182-18.986-.278-6.741-.803-13.832-1.168-15.757-1.343-7.103-7.473-11.226-13.284-8.936m27.812 4.625C141.669 46.972 138 57.628 138 70.883c0 2.199-.45 4.277-1 4.617-.586.362-1 6.151-1 13.982v13.364l3.077 3.077c2.863 2.863 5.461 3.669 10.361 3.214 1.066-.099 2.086-.327 2.266-.507.977-.978 3.296-12.359 3.296-16.179V88h5.845c4.302 0 6.259-.462 7.414-1.75 1.765-1.969 2.581-9.082 1.283-11.182-.576-.933-.478-1.147.303-.663.635.392 1.155.477 1.155.189s-.954-1.034-2.121-1.659c-1.49-.797-1.918-.808-1.441-.035 1.115 1.804-4.194 1.289-6.427-.622-2.067-1.771-2.628-5.757-1.14-8.104.463-.729 2.741-1.581 5.064-1.892 3.234-.434 4.433-1.119 5.119-2.924.493-1.297 1.583-2.358 2.421-2.358.839 0 1.518-.788 1.51-1.75-.013-1.496-.157-1.532-.985-.25s-.972 1.246-.985-.25c-.008-.962.435-1.75.985-1.75s1-.702 1-1.559-.445-1.284-.989-.948c-.584.361-.723-.08-.34-1.078.448-1.168.22-1.545-.74-1.225-.763.254-2.27-.359-3.348-1.364-2.286-2.13-3.577-2.336-3.598-.576-.011.842-.32.768-.95-.228-.986-1.559-14.083-2.585-17.017-1.333M41.593 54C31.431 58.334 30 60.005 30 67.539c0 4.715 1.221 9.979 5.122 22.076 5.733 17.777 9.771 26.614 13.186 28.851 2.037 1.335 2.447 2.852 3.59 13.268.709 6.468 1.573 12.212 1.92 12.763s1.653 5.953 2.903 12.003 3.106 12.125 4.125 13.5c2.566 3.46 9.018 3.945 13.168.99 2.74-1.951 2.986-2.615 2.986-8.058 0-3.288.446-5.932 1-5.932.55 0 1 .482 1 1.071 0 1.176.859 2.089 5.827 6.185 3.761 3.102 6.586 3.474 8.89 1.17 1.276-1.276 1.728-1.323 2.392-.25.658 1.064 1.153.99 2.519-.376 1.383-1.382 1.467-1.981.45-3.206-.688-.829-.909-2.059-.492-2.734.543-.878.975-.676 1.516.706.636 1.623.769 1.492.828-.816.079-3.099-.573-3.334-3.371-1.218-2.203 1.666-3.559 1.886-3.559.576 0-.49 1.125-1.174 2.5-1.519 2.768-.694 3.422-2.589.893-2.589-1.067 0-1.399-.542-.989-1.611.443-1.153.189-1.447-.893-1.032-1.833.704-1.974-.491-.261-2.216 1.001-1.009.952-1.154-.25-.728-1.693.599-5.717-2.029-4.686-3.061.368-.367.197-1.237-.38-1.932-.741-.893-.665-1.882.259-3.372 1.099-1.774 1.068-2.27-.193-3.12-1.236-.833-1.154-.96.464-.72 1.219.181 2.1-.37 2.322-1.454.273-1.328-.078-1.583-1.463-1.063-1.6.6-1.656.478-.46-.993.75-.922 1.833-1.386 2.408-1.031 1.811 1.12-.108-9.037-1.968-10.417-.978-.725-1.175-1.25-.468-1.25.878 0 .78-.843-.352-3.033-.925-1.788-2.031-2.747-2.696-2.336q-1.13.7-.442-1.087c.542-1.413.28-1.679-1.255-1.278-1.33.348-1.78.09-1.432-.818.337-.879-.628-1.539-2.861-1.958-1.853-.348-3.803-.547-4.333-.443s-3.109.137-5.73.071c-4.515-.112-4.851-.316-6.372-3.868-.884-2.062-1.993-4.518-2.465-5.456-.629-1.248-.267-2.122 1.344-3.25C65.453 95.695 66.929 95 67.52 95c1.67 0 8.052-7.06 10.382-11.485 4.001-7.599 1.904-17.121-5.462-24.808-2.482-2.591-6.127-5.385-8.099-6.209-5.912-2.47-14.812-1.883-22.748 1.502M167.5 56c.34.55 1.041 1 1.559 1s.941-.45.941-1-.702-1-1.559-1-1.281.45-.941 1m-2 3c.34.55.816 1 1.059 1s.441-.45.441-1-.477-1-1.059-1-.781.45-.441 1m16.103.591c-.357.932-.414 1.931-.127 2.219.288.288.539-.114.557-.893.022-.919.725-.586 2 .944 1.082 1.298 1.967 1.842 1.967 1.208s-.843-2.057-1.873-3.163c-1.707-1.832-1.931-1.86-2.524-.315m-2.838 7.623c-1.364 3.194-1.409 3.735-.231 2.758.806-.669 1.466-1.814 1.466-2.545s.724-1.733 1.609-2.228c1.295-.725 1.34-1.005.232-1.43-.898-.344-1.97.856-3.076 3.445m3.366.128c-.612.738-.821 1.634-.464 1.991.75.751 3.333-1.152 3.333-2.455 0-1.317-1.607-1.057-2.869.464M51 69.163c0 3.423 3.395 12.855 4.5 12.5 3.386-1.087 4.579-10.376 1.671-13.008-2.705-2.448-6.171-2.163-6.171.508m128.513 2.816C178.73 73.245 180.732 77 182.19 77c.631 0 .398-.798-.535-1.829-2.061-2.277-2.132-3.568-.155-2.809.825.316 1.5.139 1.5-.393 0-1.264-2.705-1.256-3.487.01m-3.377 4.771c.143.963-.729 3.945-1.938 6.627S172 88.647 172 89.127c0 1.259 1.766 1.076 2.2-.227.202-.606.442.767.533 3.051.15 3.777-.022 4.092-1.909 3.493-2.521-.8-3.8.913-3.775 5.056.02 3.349 2.955 7.5 5.302 7.5.842 0 1.809.45 2.149 1s1.266 1 2.059 1 1.441-.45 1.441-1-.9-1-2-1c-2.04 0-2.596-1.071-1.253-2.414.411-.411.795-2.624.852-4.917.058-2.293.646-5.502 1.308-7.131.934-2.296.937-3.462.011-5.19-.718-1.342-.939-3.814-.556-6.209.675-4.22.048-7.139-1.532-7.139-.526 0-.838.787-.694 1.75M171.5 93c.34.55 1.041 1 1.559 1s.941-.45.941-1-.702-1-1.559-1-1.281.45-.941 1m23 0c.34.55.816 1 1.059 1s.441-.45.441-1-.477-1-1.059-1-.781.45-.441 1m-8.5 2c0 .55.477 1 1.059 1s.781-.45.441-1-.816-1-1.059-1-.441.45-.441 1m-14.436 3.293c.376.986.935 1.541 1.243 1.233s.001-1.114-.683-1.793c-.988-.98-1.102-.865-.56.56M170 102c0 .55.45 1 1 1s1-.45 1-1-.45-1-1-1-1 .45-1 1m-64.921 12.583c.048 1.165.285 1.402.604.605.289-.722.253-1.585-.079-1.917s-.568.258-.525 1.312m5 3c.048 1.165.285 1.402.604.605.289-.722.253-1.585-.079-1.917s-.568.258-.525 1.312m-8.079.476c0 .582.412.805.915.494s1.116 0 1.363.691.834.894 1.306.452c.472-.443.196-1.223-.613-1.735-1.948-1.232-2.971-1.198-2.971.098m-.25 6.17c-2.948 3.24-3.445 5.223-1.595 6.366.73.452.882.274.414-.484-.422-.683.414-2.711 1.946-4.72 3.379-4.43 2.888-5.177-.765-1.162M106 124c-.793.49-1.11 1.223-.704 1.629.405.406 1.262.213 1.904-.429 1.511-1.511.668-2.354-1.2-1.2m-16 1c0 .55.45 1 1 1s1-.45 1-1-.45-1-1-1-1 .45-1 1m-73.808 3.062c-3.37 1.684-7.492 4.259-9.16 5.723C4.448 136.052 4 137.153 4 141.236c0 2.635.433 5.573.961 6.528.529.955 3.934 7.811 7.567 15.236 11.248 22.988 13.878 25.86 23.042 25.158 2.925-.223 8.43-5.426 8.43-7.966 0-2.256-3.589-9.82-5.104-10.756-1.261-.779-1.12-4.436.171-4.436 1.698 0 7.598-6.15 9.861-10.28 2.613-4.768 2.641-10.532.077-15.985-6.181-13.15-19.31-17.42-32.813-10.673m53.332-1.704c-1.726 1.263-1.764 1.812-.537 7.75.725 3.516 1.437 6.541 1.581 6.723.748.949 4.482-2.226 5.856-4.979 2.087-4.183 1.988-6.033-.463-8.663-2.36-2.534-3.846-2.725-6.437-.831m18.143.309c-.367.366-.667 1.131-.667 1.7 0 .626.466.567 1.183-.15.651-.651.951-1.416.667-1.7s-.817-.217-1.183.15M90 129.5c-.694.837-.803 1.5-.245 1.5.55 0 1.56-.675 2.245-1.5.694-.837.803-1.5.245-1.5-.55 0-1.56.675-2.245 1.5m13.07-.75c.039.412.457 1.65.93 2.75.762 1.772.867 1.687.93-.75.038-1.512-.38-2.75-.93-2.75s-.968.338-.93.75m1.088 7.25c0 1.375.227 1.938.504 1.25.278-.687.278-1.812 0-2.5-.277-.687-.504-.125-.504 1.25m-5.963 1.5c.02 1.65.244 2.204.498 1.231s.237-2.323-.037-3-.481.119-.461 1.769m1.963.5c0 1.375.227 1.938.504 1.25.278-.687.278-1.812 0-2.5-.277-.687-.504-.125-.504 1.25m10.342-1c.34.55 1.041 1 1.559 1s.941-.45.941-1-.702-1-1.559-1-1.281.45-.941 1m-85.75 2.758c-2.197.488-2.185 1.06.134 6.472 3.948 9.211 7.071 9.493 7.101.642.018-5.563-2.605-8.143-7.235-7.114m74.793 4.173c-1.007 1.629.907 1.945 2.909.48 1.884-1.377 1.879-1.411-.202-1.411-1.173 0-2.391.419-2.707.931m-7.523 2.593c.696.838 1.471 1.318 1.723 1.067.693-.694-.716-2.591-1.924-2.591-.664 0-.588.574.201 1.524m8.266 2.245c-1.928 2.377-2.028 2.918-.774 4.171.792.793 1.776 1.106 2.185.696s.152-1.111-.573-1.56c-1.003-.62-.64-1.444 1.518-3.445 1.846-1.711 2.317-2.624 1.348-2.612-.82.011-2.486 1.248-3.704 2.75m4.173 1.298c-.363.586-.419 1.306-.126 1.6.717.716 2.667-.546 2.667-1.726 0-1.278-1.726-1.193-2.541.126m12.62.516c.048 1.165.285 1.402.604.605.289-.722.253-1.585-.079-1.917s-.568.258-.525 1.312M88.638 152.5c-.316.825-.187 1.5.286 1.5.474 0 1.121-.675 1.438-1.5s.187-1.5-.286-1.5c-.474 0-1.121.675-1.438 1.5M92 155.559c0 .857.45 1.281 1 .941s1-1.041 1-1.559-.45-.941-1-.941-1 .702-1 1.559m11.638-.059c.317.825.753 1.5.969 1.5s.393-.675.393-1.5-.436-1.5-.969-1.5-.709.675-.393 1.5M87 157.059c0 .582.45.781 1 .441s1-.816 1-1.059-.45-.441-1-.441-1 .477-1 1.059m8 3.834c0 .491.739 1.176 1.641 1.523 1.373.527 1.435.38.378-.893-1.44-1.735-2.019-1.916-2.019-.63m-3.75 2.603c-1.423 1.616-1.597 2.504-.491 2.504.418 0 1.322-.9 2.009-2 1.426-2.283.36-2.637-1.518-.504m26.563 2.187c.721.289 1.584.253 1.916-.079s-.258-.568-1.312-.525c-1.165.048-1.402.285-.604.604"/></svg>